<?xml version="1.0" encoding="utf-8"?>
<!-- Generator: Adobe Illustrator 18.0.0, SVG Export Plug-In . SVG Version: 6.00 Build 0)  -->
<!DOCTYPE svg PUBLIC "-//W3C//DTD SVG 1.1//EN" "http://www.w3.org/Graphics/SVG/1.1/DTD/svg11.dtd">
<svg version="1.1" id="Laag_1" xmlns="http://www.w3.org/2000/svg" xmlns:xlink="http://www.w3.org/1999/xlink" x="0px" y="0px"
	 viewBox="0 0 60 100" enable-background="new 0 0 60 100" xml:space="preserve">
<g>
	<path fill="#FFFFFF" stroke="#333333" stroke-width="1.3" stroke-miterlimit="10" d="M12.1,95.5c0,0-0.3,0-0.3,0
		C6,95.5,1,90.3,1,84.5V14.4C1,8.6,6,3.9,11.8,3.9c2.8,0,5.5,1.1,7.5,3.1l29.5,29.4c3.5,3.5,5.5,8.1,5.5,13.1
		c0,4.9-1.9,9.6-5.4,13.1L19.4,92.2C17.4,94.2,14.8,95.5,12.1,95.5z M11.8,8.9C9.1,8.9,6,10.9,6,14.4v70.1c0,3.5,3.1,6,5.8,6
		c0,0,0.1,0,0.1,0c1,0,2.5-0.5,3.9-1.9l29.4-29.5c2.5-2.6,4-6,4-9.6c0-3.6-1.4-7-3.9-9.6L15.8,10.5C14.4,9.1,12.8,8.9,11.8,8.9z"/>
</g>
<g>
	<path fill="#FFFFFF" stroke="#333333" stroke-width="1.3" stroke-miterlimit="10" d="M39.7,71.7l11.8,11.8c2.5,2.5,3.2,6.3,1.8,9.5
		c-1.3,3.2-4.4,5.5-7.9,5.5H16c-8,0-15-7-15-15V54.1c0-4.7,4.1-8.5,8.8-8.5c2.2,0,4.5,0.9,6.1,2.5L36,68.2l-3.5,3.5L12.5,51.6
		c-0.9-0.9-2-1-2.7-1C8,50.6,6,51.9,6,54.1v29.4c0,5.2,4.8,10,10,10h29.4c2.2,0,3-1.9,3.2-2.4s0.8-2.4-0.8-3.9L36.2,75.3L39.7,71.7z
		"/>
</g>
</svg>
